Coordinates
version=1
nRows=8
nColumns=42
inDegrees=yes

Units are S.I. units (second, meters, Newtons, ...)
If the header above contains a line with 'inDegrees', this indicates whether rotational values are in degrees (yes) or radians (no).

endheader
time	pelvis_tilt	pelvis_list	pelvis_rotation	pelvis_tx	pelvis_ty	pelvis_tz	hip_flexion_r	hip_adduction_r	hip_rotation_r	knee_angle_r	knee_adduction_r	knee_angle_r_beta	ankle_angle_r	subtalar_angle_r	mtp_angle_r	hip_flexion_l	hip_adduction_l	hip_rotation_l	knee_angle_l	knee_adduction_l	knee_angle_l_beta	ankle_angle_l	subtalar_angle_l	mtp_angle_l	lumbar_extension	lumbar_bending	lumbar_rotation	arm_flex_r	arm_add_r	arm_rot_r	elbow_flex_r	pro_sup_r	wrist_flex_r	wrist_dev_r	arm_flex_l	arm_add_l	arm_rot_l	elbow_flex_l	pro_sup_l	wrist_flex_l	wrist_dev_l
      1.65000000	      7.28894636	     -0.56975782	      0.44859848	      0.94621992	      1.00298438	     -0.22467899	     17.62957221	     -5.25747872	     -8.01202814	     20.25066713	      8.62277829	      0.35344082	      1.51581072	     -7.26912412	     -7.51360121	    -19.40143820	     -3.68437076	      1.01348787	      6.13258495	     12.34802173	      0.10703380	     13.75876201	      0.48446416	     -7.51360121	    -14.61011130	     -0.43131920	     -3.89563309	    -16.68674622	     -7.28568486	    -12.24780010	     17.82611078	     90.00000001	      0.00000000	      0.00000000	     15.77922878	    -22.08627287	      0.43284330	     43.32350756	     90.00000001	      0.00000000	      0.00000000
      1.66000000	      6.75340744	     -0.15939108	      0.60068351	      0.95996216	      0.99936153	     -0.22488100	     18.19193733	     -5.66720428	     -8.85438891	     16.99314782	      8.79479664	      0.29658638	      1.69901581	     -5.92124777	     -7.51337821	    -19.53675087	     -3.20594471	      1.10953704	      6.43131296	     12.13897371	      0.11224759	     14.30435760	      0.70671443	     -7.51337821	    -14.05159744	     -0.71801678	     -4.20935124	    -17.52041626	     -7.08340038	    -12.34414853	     17.88511907	     90.00000001	      0.00000000	      0.00000000	     16.56125954	    -22.52582326	      0.73343841	     44.10561811	     90.00000001	      0.00000000	      0.00000000
      1.67000000	      7.01976971	     -0.22657475	      1.06018628	      0.97450126	      0.99664935	     -0.22480387	     17.57215674	     -5.60154439	    -10.18601257	     13.62752608	      9.05129281	      0.23784520	      2.27759939	     -4.19075609	     -7.51294539	    -20.64997110	     -3.53967118	      1.22724420	      6.58924125	     12.26308698	      0.11500396	     14.92908625	      1.20732590	     -7.51294539	    -14.31953320	     -0.47474919	     -4.65324627	    -18.22376497	     -6.87366167	    -12.58074074	     17.83028168	     90.00000001	      0.00000000	      0.00000000	     17.25439989	    -23.14046232	      1.54893155	     45.18574576	     90.00000001	      0.00000000	      0.00000000
      1.68000000	      6.57022403	      0.08500731	      1.26242480	      0.98871201	      0.99304162	     -0.22494347	     18.04787967	     -6.00826725	    -11.01362240	     11.09934749	      9.53918949	      0.19372016	      2.37128093	     -2.87075283	     -7.51273709	    -20.89447827	     -3.25372609	      1.37859382	      6.91651166	     12.17046498	      0.12071590	     15.39708148	      1.42397150	     -7.51273709	    -13.82158000	     -0.65303602	     -4.96185975	    -18.98376404	     -6.71132310	    -12.76205610	     17.95953039	     90.00000001	      0.00000000	      0.00000000	     17.88199312	    -23.51323262	      1.79095935	     45.93421305	     90.00000001	      0.00000000	      0.00000000
      1.69000000	      6.72686123	      0.05443540	      1.68906140	      1.00352821	      0.99019279	     -0.22480739	     17.73871085	     -6.00937204	    -12.24164535	      8.86913184	      9.92123540	      0.15479555	      2.82404106	     -1.22239350	     -7.51224089	    -21.82906424	     -3.55608030	      1.49464638	      7.22955449	     12.26450292	      0.12617953	     15.89313458	      1.93032258	     -7.51224089	    -13.94944963	     -0.45509386	     -5.38560972	    -19.57886705	     -6.53885511	    -13.14157260	     17.93985462	     90.00000001	      0.00000000	      0.00000000	     18.40692130	    -24.03883364	      2.36154881	     46.88532127	     90.00000001	      0.00000000	      0.00000000
      1.70000000	      6.57050796	      0.18731828	      2.01451033	      1.01821296	      0.98708266	     -0.22487734	     17.93546180	     -6.22963546	    -13.01408609	      7.31233394	     10.39343343	      0.12762430	      3.12983226	     -0.02353598	     -7.51185542	    -22.33518547	     -3.57706296	      1.69544142	      7.70502177	     12.23723341	      0.13447800	     16.27058887	      2.20429367	     -7.51185542	    -13.75232477	     -0.41834547	     -5.76376688	    -20.12516250	     -6.42471095	    -13.45250574	     17.94563195	     90.00000001	      0.00000000	      0.00000000	     18.84497339	    -24.40615433	      2.65360893	     47.68296772	     90.00000001	      0.00000000	      0.00000000
      1.71000000	      6.25993737	      0.31873041	      2.19375269	      1.03309009	      0.98388656	     -0.22495404	     18.45018098	     -6.41280090	    -13.35386358	      6.41929656	     10.80316021	      0.11203786	      3.21177395	      0.56664854	     -7.51172895	    -22.69839684	     -3.52535462	      1.89252807	      8.16963017	     12.18276646	      0.14258695	     16.46361159	      2.25636919	     -7.51172895	    -13.35479435	     -0.39118091	     -5.96854309	    -20.68371487	     -6.39047128	    -13.62396931	     18.00631873	     90.00000001	      0.00000000	      0.00000000	     19.21479795	    -24.57828483	      2.72015582	     48.28179128	     90.00000001	      0.00000000	      0.00000000
      1.72000000	      6.13422544	      0.32337371	      2.60050842	      1.04808390	      0.98117208	     -0.22480446	     18.58830182	     -6.38045859	    -13.47770895	      5.60489478	     10.97253276	      0.09782387	      3.35646907	      1.32850099	     -7.51155532	    -23.11898124	     -3.75585973	      2.40278433	      8.85295820	     12.17819268	      0.15451327	     16.65780783	      2.33293043	     -7.51155532	    -13.18045686	     -0.22447451	     -6.45725940	    -21.05925388	     -6.32168352	    -13.93057036	     18.10204696	     90.00000001	      0.00000000	      0.00000000	     19.35891419	    -24.98679253	      2.89724967	     49.05553060	     90.00000001	      0.00000000	      0.00000000
